<svg width="691" height="530" viewBox="0 0 691 530" fill="none" xmlns="http://www.w3.org/2000/svg">
<path d="M460.319 213L439 232.439L507.631 272.5L439 312.561L460.319 332L545.596 282.22C547.594 281.054 549.207 279.575 550.316 277.892C551.424 276.21 552 274.367 552 272.5C552 270.633 551.424 268.79 550.316 267.108C549.207 265.425 547.594 263.946 545.596 262.78L460.319 213Z" fill="black"/>
<path d="M236.039 332L260 312.561L182.866 272.5L260 232.439L236.039 213L140.197 262.78C137.951 263.946 136.139 265.425 134.893 267.108C133.647 268.79 133 270.633 133 272.5C133 274.367 133.647 276.21 134.893 277.892C136.139 279.575 137.951 281.054 140.197 282.22L236.039 332Z" fill="black"/>
<path d="M421 3.67278L319.539 156L270 152.327L371.461 0L421 3.67278Z" fill="black"/>
<path d="M588.43 225.379C575.383 208.146 556.939 196.298 533.096 189.836C502.505 175.116 468.764 164.345 431.875 157.523V1.3478C484.51 10.3234 526.46 27.3771 557.726 52.5088C588.992 77.6405 604.625 109.953 604.625 149.445C604.625 182.835 603.275 212.993 600.576 239.92C598.327 235.611 594.278 230.764 588.43 225.379ZM102.57 224.84C96.722 230.585 92.6732 235.611 90.4238 239.92C87.7246 212.993 86.375 182.835 86.375 149.445C86.375 110.671 102.12 78.7176 133.611 53.5859C165.102 28.4541 206.94 11.221 259.125 1.88634V157.523C222.236 164.345 188.495 175.116 157.904 189.836C134.061 196.298 115.617 207.966 102.57 224.84ZM194.344 356.782C224.035 356.782 249.453 348.345 270.597 331.471C291.741 314.597 302.312 294.312 302.312 270.616C302.312 253.383 296.577 237.855 285.105 224.033C273.633 210.21 258.675 199.709 240.23 192.528C275.32 186.784 310.41 183.912 345.5 183.912C380.14 183.912 415.23 186.784 450.77 192.528C431.875 199.709 416.804 210.3 405.558 224.302C394.311 238.304 388.688 253.742 388.688 270.616C388.688 294.312 399.259 314.597 420.403 331.471C441.547 348.345 466.965 356.782 496.656 356.782C525.898 356.782 550.978 348.614 571.897 332.279C592.816 315.943 603.725 296.286 604.625 273.309L691 494.647C683.352 494.647 671.093 493.032 654.223 489.8C637.353 486.569 614.41 481.812 585.393 475.529C556.376 469.246 531.521 464.13 510.827 460.181C485.634 482.8 456.843 499.943 424.452 511.611C392.062 523.28 365.744 529.114 345.5 529.114C325.256 529.114 298.938 523.28 266.548 511.611C234.157 499.943 205.366 482.8 180.173 460.181C159.479 464.13 134.736 469.246 105.944 475.529C77.1527 481.812 54.2093 486.569 37.1143 489.8C20.0192 493.032 7.64779 494.647 0 494.647L86.375 273.309C87.2747 296.286 98.1841 315.943 119.103 332.279C140.022 348.614 165.102 356.782 194.344 356.782ZM237.531 460.181H453.469C459.317 460.181 464.378 458.476 468.652 455.065C472.926 451.654 475.062 447.615 475.062 442.948C473.713 440.435 471.913 437.921 469.664 435.408L388.688 322.316H302.312L221.336 435.408L215.938 442.948C215.938 447.615 218.074 451.654 222.348 455.065C226.622 458.476 231.683 460.181 237.531 460.181ZM367.094 356.782L410.281 425.715H280.719L323.906 356.782H367.094Z" fill="black"/>
</svg>
